<svg width="1120" height="300" viewBox="0 0 1120 300" fill="none" xmlns="http://www.w3.org/2000/svg">
  <g transform="translate(28 28) scale(0.4765625)">
    <rect width="512" height="512" rx="112" fill="#050607"/>
    <rect x="38" y="38" width="436" height="436" rx="88" fill="url(#tile)"/>
    <rect x="90" y="88" width="332" height="336" rx="58" fill="#0B0D0E" stroke="#1F2A26" stroke-width="2"/>
    <path d="M330 158C308 132 258 124 220 139C184 153 174 192 208 212C230 225 264 229 295 242C344 262 348 320 304 349C258 379 188 362 163 319" stroke="#F5F8F6" stroke-width="42" stroke-linecap="round" stroke-linejoin="round"/>
    <path d="M183 161C208 132 262 122 309 137" stroke="#10B981" stroke-width="18" stroke-linecap="round"/>
    <path d="M333 97H394C404.493 97 413 105.507 413 116V219L363.5 184L314 219V116C314 105.507 322.507 97 333 97Z" fill="#10B981"/>
    <circle cx="356" cy="148" r="12" fill="#07100D"/>
    <path d="M151 399H232" stroke="#10B981" stroke-width="18" stroke-linecap="round"/>
  </g>
  <text x="310" y="151" fill="#050607" font-family="Inter, Arial, sans-serif" font-size="98" font-weight="850" letter-spacing="-4">SpySave</text>
  <text x="316" y="203" fill="#64748B" font-family="Inter, Arial, sans-serif" font-size="26" font-weight="700" letter-spacing="1.4">AI CREATIVE RESEARCH</text>
  <path d="M310 230H518" stroke="#10B981" stroke-width="10" stroke-linecap="round"/>
  <defs>
    <linearGradient id="tile" x1="76" y1="42" x2="436" y2="454" gradientUnits="userSpaceOnUse">
      <stop stop-color="#111716"/>
      <stop offset="0.55" stop-color="#080A0B"/>
      <stop offset="1" stop-color="#101816"/>
    </linearGradient>
  </defs>
</svg>
